<svg width="27" height="27" viewBox="0 0 27 27" fill="none" xmlns="http://www.w3.org/2000/svg">
<path d="M26 17.8664C23.6412 18.8146 21.0556 19.0489 18.5646 18.5402C16.0736 18.0315 13.7872 16.8022 11.9894 15.0052C10.1916 13.2081 8.96188 10.9225 8.45298 8.43252C7.94407 5.94252 8.17847 3.35792 9.12704 1C6.33367 2.12471 4.01869 4.18571 2.57893 6.82967C1.13917 9.47362 0.664313 12.5359 1.23576 15.4915C1.80721 18.4471 3.38937 21.1119 5.71101 23.0292C8.03266 24.9465 10.9492 25.9967 13.9606 26C16.5503 26.0001 19.0807 25.2255 21.2263 23.776C23.3718 22.3265 25.0344 20.2684 26 17.8664Z" stroke="black" stroke-width="2" stroke-linecap="round" stroke-linejoin="round"/>
</svg>
