<svg width="15" height="14" viewBox="0 0 15 14" fill="none" xmlns="http://www.w3.org/2000/svg">
<mask id="path-1-inside-1_15_241" fill="white">
<path fill-rule="evenodd" clip-rule="evenodd" d="M6.74238 4.55554C6.4038 5.98889 5.11614 7.05554 3.57935 7.05554C1.78442 7.05554 0.329346 5.60047 0.329346 3.80554C0.329346 2.01062 1.78442 0.555542 3.57935 0.555542C5.11614 0.555542 6.4038 1.62219 6.74238 3.05554H12.3293C12.7436 3.05554 13.0793 3.39133 13.0793 3.80554C13.0793 4.21976 12.7436 4.55554 12.3293 4.55554H6.74238ZM1.57935 10.3055C1.57935 9.89133 1.91513 9.55554 2.32935 9.55554H7.91631C8.25489 8.12219 9.54255 7.05554 11.0793 7.05554C12.8743 7.05554 14.3293 8.51062 14.3293 10.3055C14.3293 12.1005 12.8743 13.5555 11.0793 13.5555C9.54255 13.5555 8.25489 12.4889 7.91631 11.0555H2.32935C1.91513 11.0555 1.57935 10.7198 1.57935 10.3055Z"/>
</mask>
<path fill-rule="evenodd" clip-rule="evenodd" d="M6.74238 4.55554C6.4038 5.98889 5.11614 7.05554 3.57935 7.05554C1.78442 7.05554 0.329346 5.60047 0.329346 3.80554C0.329346 2.01062 1.78442 0.555542 3.57935 0.555542C5.11614 0.555542 6.4038 1.62219 6.74238 3.05554H12.3293C12.7436 3.05554 13.0793 3.39133 13.0793 3.80554C13.0793 4.21976 12.7436 4.55554 12.3293 4.55554H6.74238ZM1.57935 10.3055C1.57935 9.89133 1.91513 9.55554 2.32935 9.55554H7.91631C8.25489 8.12219 9.54255 7.05554 11.0793 7.05554C12.8743 7.05554 14.3293 8.51062 14.3293 10.3055C14.3293 12.1005 12.8743 13.5555 11.0793 13.5555C9.54255 13.5555 8.25489 12.4889 7.91631 11.0555H2.32935C1.91513 11.0555 1.57935 10.7198 1.57935 10.3055Z" fill="#A8A8A8"/>
<path d="M6.74238 4.55554V3.55554H5.95108L5.76916 4.32565L6.74238 4.55554ZM6.74238 3.05554L5.76916 3.28543L5.95108 4.05554H6.74238V3.05554ZM7.91631 9.55554V10.5555H8.70761L8.88953 9.78543L7.91631 9.55554ZM7.91631 11.0555L8.88953 10.8257L8.70761 10.0555H7.91631V11.0555ZM3.57935 8.05554C5.59029 8.05554 7.27283 6.65985 7.7156 4.78543L5.76916 4.32565C5.53477 5.31793 4.64198 6.05554 3.57935 6.05554V8.05554ZM-0.670654 3.80554C-0.670654 6.15275 1.23214 8.05554 3.57935 8.05554V6.05554C2.3367 6.05554 1.32935 5.04818 1.32935 3.80554H-0.670654ZM3.57935 -0.444458C1.23214 -0.444458 -0.670654 1.45833 -0.670654 3.80554H1.32935C1.32935 2.5629 2.3367 1.55554 3.57935 1.55554V-0.444458ZM7.7156 2.82565C7.27283 0.951229 5.59029 -0.444458 3.57935 -0.444458V1.55554C4.64198 1.55554 5.53477 2.29315 5.76916 3.28543L7.7156 2.82565ZM12.3293 2.05554H6.74238V4.05554H12.3293V2.05554ZM14.0793 3.80554C14.0793 2.83904 13.2958 2.05554 12.3293 2.05554V4.05554C12.1913 4.05554 12.0793 3.94361 12.0793 3.80554H14.0793ZM12.3293 5.55554C13.2958 5.55554 14.0793 4.77204 14.0793 3.80554H12.0793C12.0793 3.66747 12.1913 3.55554 12.3293 3.55554V5.55554ZM6.74238 5.55554H12.3293V3.55554H6.74238V5.55554ZM2.32935 8.55554C1.36285 8.55554 0.579346 9.33904 0.579346 10.3055H2.57935C2.57935 10.4436 2.46742 10.5555 2.32935 10.5555V8.55554ZM7.91631 8.55554H2.32935V10.5555H7.91631V8.55554ZM8.88953 9.78543C9.12392 8.79315 10.0167 8.05554 11.0793 8.05554V6.05554C9.0684 6.05554 7.38587 7.45123 6.9431 9.32565L8.88953 9.78543ZM11.0793 8.05554C12.322 8.05554 13.3293 9.0629 13.3293 10.3055H15.3293C15.3293 7.95833 13.4266 6.05554 11.0793 6.05554V8.05554ZM13.3293 10.3055C13.3293 11.5482 12.322 12.5555 11.0793 12.5555V14.5555C13.4266 14.5555 15.3293 12.6528 15.3293 10.3055H13.3293ZM11.0793 12.5555C10.0167 12.5555 9.12392 11.8179 8.88953 10.8257L6.9431 11.2854C7.38587 13.1599 9.0684 14.5555 11.0793 14.5555V12.5555ZM2.32935 12.0555H7.91631V10.0555H2.32935V12.0555ZM0.579346 10.3055C0.579346 11.272 1.36285 12.0555 2.32935 12.0555V10.0555C2.46742 10.0555 2.57935 10.1675 2.57935 10.3055H0.579346Z" fill="#A8A8A8" mask="url(#path-1-inside-1_15_241)"/>
</svg>
