<svg width="308" height="79" viewBox="0 0 308 79" fill="none" xmlns="http://www.w3.org/2000/svg">
<path d="M37.171 78.167V55.0121C37.171 54.364 37.171 53.5585 37.171 52.6852C37.171 48.2669 33.5884 44.684 29.1701 44.684C28.0321 44.684 26.9588 44.684 26.1002 44.684C22.5441 44.684 11.1714 44.684 11.1714 44.684C11.1714 44.684 11.1714 51.9303 11.1714 55.0954V78.167H0V22.1399H11.1714V35.9385C11.1714 35.9385 24.3118 35.9385 29.5221 35.9385C35.6949 35.9385 40.358 37.4932 43.5115 40.6028C46.665 43.6012 48.2417 47.627 48.2417 52.68V78.167H37.171Z" fill="#6935FD"/>
<path d="M53.1599 57.4276C53.1599 53.4296 54.3676 49.7648 56.7831 46.4331C59.3327 42.9904 62.5533 40.4084 66.4448 38.6871C70.4706 36.8547 74.8989 35.9385 79.7298 35.9385C84.4265 35.9385 88.7877 36.8547 92.8134 38.6871C96.8391 40.5195 100.06 43.0737 102.475 46.3498C104.824 49.737 105.998 53.3741 105.998 57.261C106.132 63.2024 103.549 68.3387 98.2482 72.6698C93.0147 76.9454 86.8083 79.0277 79.6291 78.9167C74.9995 78.9167 70.6048 77.9727 66.4448 76.0848C62.5533 74.3634 59.3327 71.7814 56.7831 68.3387C54.3676 65.007 53.1599 61.37 53.1599 57.4276ZM64.6333 57.261C64.6333 60.8703 66.0423 63.9798 68.8603 66.5896C71.6783 69.1994 75.3015 70.5043 79.7298 70.5043C84.091 70.5043 87.6806 69.2271 90.4986 66.6729C93.2495 64.1186 94.625 61.0368 94.625 57.4276C94.625 53.7072 93.216 50.5977 90.398 48.099C87.7141 45.5447 84.1245 44.2676 79.6291 44.2676C75.2008 44.2676 71.5776 45.5169 68.7596 48.0157C66.0087 50.4589 64.6333 53.5406 64.6333 57.261Z" fill="#6935FD"/>
<path d="M122.148 36.7714V59.9263C122.148 60.5744 122.148 61.3799 122.148 62.2532C122.148 66.6715 125.73 70.2544 130.149 70.2544C131.253 70.2544 132.29 70.2544 133.118 70.2544C136.674 70.2544 148.047 70.2544 148.047 70.2544C148.047 70.2544 148.047 63.0081 148.047 59.843V36.7714H159.218V79C159.218 79 140.942 79 129.696 79C125.737 79 122.316 78.2781 119.43 76.8344C116.545 75.3351 114.398 73.3084 112.989 70.7541C111.647 68.3665 110.976 65.5346 110.976 62.2584V36.7714H122.148Z" fill="#6935FD"/>
<path d="M184.366 78.9167C176.918 78.8611 171.45 76.9177 167.961 73.0863C165.948 70.9207 164.841 68.8384 164.64 66.8395L174.201 64.7572C174.737 66.7562 175.878 68.3665 177.623 69.5881C179.367 70.7541 181.581 71.3372 184.265 71.3372C186.479 71.3372 188.19 70.9207 189.398 70.0878C190.673 69.1994 191.31 68.0055 191.31 66.5063C191.31 64.2297 189.331 62.7027 185.372 61.9253L179.032 60.6759C174.737 59.843 171.45 58.3993 169.168 56.3448C166.887 54.2347 165.747 51.736 165.747 48.8486C165.747 45.2948 167.458 42.2408 170.879 39.6866C174.301 37.1323 178.495 35.8552 183.46 35.8552C190.505 35.9107 195.638 37.7431 198.858 41.3524C200.536 43.1848 201.542 45.0449 201.878 46.9329L192.518 49.0984C192.048 47.3771 191.042 45.9889 189.498 44.9339C188.022 43.8789 186.009 43.3514 183.46 43.3514C181.581 43.3514 179.971 43.7956 178.629 44.684C177.287 45.4614 176.616 46.5719 176.616 48.0157C176.616 50.3478 178.293 51.7915 181.648 52.3468L188.492 53.5129C192.987 54.3458 196.476 55.8728 198.959 58.0939C201.441 60.426 202.683 63.0636 202.683 66.0065C202.683 69.5048 201.072 72.531 197.852 75.0853C194.698 77.6395 190.203 78.9167 184.366 78.9167Z" fill="#6935FD"/>
<path d="M254.508 60.1762H216.465C216.532 63.1746 218.075 65.7567 221.094 67.9222C224.113 70.0323 227.468 71.0595 231.159 71.004C238.136 71.004 242.565 68.6719 244.443 64.0075L253.803 66.423C252.931 68.9217 251.321 71.1428 248.972 73.0863C246.691 75.0297 244.007 76.5012 240.921 77.5007C237.7 78.4447 234.48 78.9167 231.259 78.9167C224.013 79.0277 217.807 76.9732 212.64 72.7531C207.474 68.533 204.958 63.4245 205.092 57.4276C205.092 53.5406 206.165 49.9591 208.312 46.683C210.527 43.2958 213.546 40.686 217.37 38.8536C221.262 36.9102 225.556 35.9385 230.253 35.9385C237.902 35.9385 243.873 37.9097 248.167 41.8521C252.528 45.7946 254.709 50.9586 254.709 57.3443C254.709 58.1217 254.642 59.0656 254.508 60.1762ZM230.353 43.8511C226.797 43.8511 223.845 44.7118 221.497 46.4331C219.014 48.099 217.538 50.3478 217.068 53.1797H243.336C243.135 50.4033 241.827 48.1267 239.411 46.3498C236.862 44.684 233.842 43.8511 230.353 43.8511Z" fill="#6935FD"/>
<path d="M295.959 78.1648V54.9566C295.959 54.3085 295.959 53.503 295.959 52.6297C295.959 48.2114 292.376 44.6285 287.958 44.6285C286.82 44.6285 285.747 44.6285 284.888 44.6285C281.332 44.6285 271.239 44.684 271.239 44.684C271.239 44.684 271.239 51.9303 271.239 55.0954V78.167H260.068V36.7714C271.315 36.7714 276.999 36.7158 288.31 36.7158C294.483 36.7158 299.146 37.4377 302.299 40.5472C305.453 43.5457 307.03 47.5714 307.03 52.6244V78.1648H295.959Z" fill="#6935FD"/>
<path d="M154.66 26.8783L135.265 6L116.855 26.8783" stroke="#6935FD" stroke-width="8"/>
</svg>
